<svg xmlns="http://www.w3.org/2000/svg" viewBox="0 0 500 500"><g id="freepik--background-simple--inject-21"><path d="M311.74,32.85S233.17,8.47,161.77,56,59.6,192.82,32.76,264.5,30.35,406.82,90.18,436.88s94.87-19.69,174.94-25.58,102.59,4.9,165.47-44.38S496.72,207.66,437.68,129,311.74,32.85,311.74,32.85Z" style="fill:#92E3A9"></path><path d="M311.74,32.85S233.17,8.47,161.77,56,59.6,192.82,32.76,264.5,30.35,406.82,90.18,436.88s94.87-19.69,174.94-25.58,102.59,4.9,165.47-44.38S496.72,207.66,437.68,129,311.74,32.85,311.74,32.85Z" style="fill:#fff;opacity:0.7000000000000001"></path><circle cx="334.17" cy="89.76" r="26.81" style="fill:#f2f2f2;stroke:#fff;stroke-miterlimit:10;stroke-width:2px"></circle><ellipse cx="318.11" cy="88.87" rx="7.02" ry="7.45" style="fill:#e3e3e3"></ellipse><path d="M336,73.83A5.87,5.87,0,1,1,330.14,68,5.87,5.87,0,0,1,336,73.83Z" style="fill:#e3e3e3"></path><path d="M333.15,96.89a3,3,0,1,1-3-3.44A3.24,3.24,0,0,1,333.15,96.89Z" style="fill:#e3e3e3"></path><path d="M321.69,102.9a2.44,2.44,0,1,1-2.44-2.29A2.36,2.36,0,0,1,321.69,102.9Z" style="fill:#e3e3e3"></path><path d="M342.31,81.28a3.31,3.31,0,1,1-3.29-3A3.15,3.15,0,0,1,342.31,81.28Z" style="fill:#e3e3e3"></path><circle cx="340.31" cy="70.82" r="1.72" style="fill:#e3e3e3"></circle><path d="M343.11,93.87a1.72,1.72,0,1,1-1.72-1.72A1.72,1.72,0,0,1,343.11,93.87Z" style="fill:#e3e3e3"></path><circle cx="342.92" cy="107.98" r="1.72" style="fill:#e3e3e3"></circle><ellipse cx="316.68" cy="76.12" rx="2.72" ry="2.43" style="fill:#e3e3e3"></ellipse><path d="M334.17,85.82a3.68,3.68,0,1,1-3.67-3.94A3.81,3.81,0,0,1,334.17,85.82Z" style="fill:#e3e3e3"></path><path d="M352.67,100.13A3.68,3.68,0,1,1,349,96.19,3.81,3.81,0,0,1,352.67,100.13Z" style="fill:#e3e3e3"></path><path d="M331.85,109.2c-.87,1.78-3.54,2.27-6,1.09s-3.71-3.57-2.84-5.36,3.53-2.27,6-1.1S332.71,107.41,331.85,109.2Z" style="fill:#e3e3e3"></path><path d="M351.07,91.83c-1.79-.86-2.29-3.53-1.12-6s3.57-3.71,5.36-2.85,2.28,3.53,1.11,6S352.86,92.69,351.07,91.83Z" style="fill:#e3e3e3"></path><path d="M302.77,61.55a7.59,7.59,0,0,0-13.48-4.79,11.91,11.91,0,0,0-8.45-5.88,21.67,21.67,0,0,0-43.12,2.94,10.84,10.84,0,0,0-18.37,6.51,7,7,0,0,0-10.88,1.22Z" style="fill:#d1d1d1"></path><path d="M396.81,91.62a4.87,4.87,0,0,0-8.65-3.07,7.65,7.65,0,0,0-5.43-3.78A13.92,13.92,0,0,0,355,86.66a7,7,0,0,0-11.8,4.18,4.53,4.53,0,0,0-7,.78Z" style="fill:#d1d1d1"></path><path d="M367.34,104.75a3,3,0,0,0-5.35-1.9,4.78,4.78,0,0,0-3.36-2.34,8.6,8.6,0,0,0-17.12,1.17,4.3,4.3,0,0,0-7.29,2.59,2.79,2.79,0,0,0-4.32.48Z" style="fill:#d1d1d1"></path></g><g id="freepik--trees-4--inject-21"><path d="M446,387.17l9.47-1.58L446,381.64s15-3.94,12.62-3.94H440.46l11.05-11.84-12.63,4.74,5.53-15-5.24,9.61-12.91-8s-12.63-5.53-16.58-5.53-24.46-9.47-24.46-9.47l3.59,9.45-11.48-6.29-.79,5.53-6.32-4.74,2.37,7.1L365.49,343l-4.74,10.26-6.31-11.83L352.86,354l-6.31-4.73L345,355.6l-7.89-15-5.53,7.89-2.36-13.42-8.86,5.73-2.19-7.31-4.78,23.58L311,345.34l-1.57,6.31L299.2,324l4.73,21.31-7.1-10.26L305,356.61l-17.63-12.85L285,350.87,281,342.18l7.11,17.37L273.94,348.5s-3.95,8.68-3.95,6.31V339l-4.73,8.68-7.89-5.53,2.37-9.47-10.43,2.37-.62-.79-3.95-7.89s-4-5.52-4-10.26v-15c0-11,.79-15.79.79-19.73s-3.15-5.53.79-11.84,3.95-9.47,7.89-15,5.53-7.1,6.32-10.26-.79-22.88,0-30,0-11.83.79-15.78.79-3.16,2.37-7.89,4.73-10.26,6.31-14.21,7.89-12.63,7.89-12.63-7.1,7.9-9.47,9.47-5.52,9.48-5.52,9.48l-4.74,7.1s-4,14.2-4,17.36v18.94s-4.73-22.89-6.31-26.83S237.64,178,237.64,178L240,198.55,244,215.12s3.16,10.26,3.16,12.63-5.53-.79-5.53-.79l-10-13.63a226.41,226.41,0,0,1-3.33-24.42c0-2.72-.91-5.44-.91-7.25s-1.81-6.79-2.26-10-2.72-6.8-4.53-12.23-1.81-6.8-1.81-6.8l.9-3.17s1.82-8.15,2.27-10a7.7,7.7,0,0,1,1.81-3.17l3.62-1.81s3.18-1.82,5-2.72a64.61,64.61,0,0,1,8.15-3.63c1.81-.45,12.23-5.43,12.23-5.43l6.34-4.53,3.62-6.34,5.44-1.36,5.89,10,3.62,5,4.53,7.24v11.78s1.36-6.79,2.27-8.15,0-3.17,0-5-2.27-5.88-2.72-8.15-5.44-6.34-5.44-6.34l.91-3.62s3.17.9,6.79,1.81,4.53,2.26,5.89,2.72,2.72,4.07,2.72,4.07l5.43,9.06s-.9-5-1.36-6.79a32.31,32.31,0,0,1-.45-6.8c0-2.26-.9-1.36-5-4.07s-5.44-2.27-5.44-2.27l-10.41-2.26,1.36-1.81,2.26-1.82a28.67,28.67,0,0,1,5.44-2.71,9,9,0,0,1,5,.45,30.24,30.24,0,0,0,6.79,1.36c1.81,0,6.34,5,6.34,5a19.86,19.86,0,0,0-3.62-5.43c-2.27-2.27-4.53-3.18-7.7-4.08s-4.53-2.27-6.79-2.27-5.44.91-7.7.91-6.35,4.08-6.35,4.08l.91-3.63,1.81-2.71,5-3.63,6.35-3.62s-5,0-7.7.9a12,12,0,0,0-6.8,4.53c-2.72,3.17-3.17,5.44-4.53,8.16s-3.62,5.43-7.7,11.32-10.87,7.25-12.68,7.7-21.74,7.7-21.74,7.7a30.85,30.85,0,0,0,1.36-5.44c0-1.35.9-3.17,1.36-4.52s3.17-4.08,3.17-4.08,3.17-2.72,4.53-3.62,2.71-4.08,4.53-5.89,3.17-4.53,5-5.44,9.06-7.25,9.06-7.25,4.07-3.62,6.79-5.88,2.72-3.17,4.08-4.08,8.15-5.89,9.06-7.25l7.24-10.87s-2.26,1.81-5,3.63-4.53,5-6.34,6.34-3.62,3.17-5.44,4.53-11.77,10-11.77,10l2.26-3.17L255,80.66a11.83,11.83,0,0,0,.46-3.18l-.91-10s-1.81,11.78-3.17,14A8.75,8.75,0,0,0,250,85.64s-4.53,7.7-8.6,10-4.53,5.44-7.25,7.7-5.44,5.44-7.7,7.25-8.61,14-8.61,14l-7.24,21.29a57.24,57.24,0,0,1-8.16-6.34c-3.17-3.17-5-4.53-7.24-9.06a75,75,0,0,1-4.08-10c-.45-1.35-10.87-10.87-10.87-10.87s1.81-3.62,3.17-4.53,2.26-4.07,2.26-4.07.46-11.33.46-14V82l1.36-5.43,3.17-6.34c1.36-2.72,1.36-4.53,2.26-5.89s1.81-5,2.72-6.79.45-13.14.45-13.14-.9,5.44-1.81,7.25-.91,4.07-2.72,8.6-3.17,5.89-5,9.51-4.53,3.63-4.53,3.63l-1.81-4.08a32.86,32.86,0,0,1-.91-6.79c0-3.17-.45-4.08-.45-5.89a19.26,19.26,0,0,1,.91-5.44,62.11,62.11,0,0,0,.9-7.24V33.1l-.45-16.76L178.92,33.1s-1.36,6.79-2.26,9.51-.46,5.89-.91,7.7-.91,10.42-.91,10.42,1.82,9.51,1.82,10.87,4.52,10,4.52,10-.45,8.61-.45,10-2.26,8.15-2.26,8.15l-3.63,8.15s10.42,14,11.78,16.76l5.44,10.87L188,132.29a56.58,56.58,0,0,1-10.42-2.72c-4.53-1.81-3.17-.9-5-1.81a35.45,35.45,0,0,0-10.42-2.26c-2.72,0-3.62-2.27-5-5.44s-2.27-5.89-3.17-7.25-1.81-5.88-2.27-7.24-2.26-5-3.62-9.06a17.37,17.37,0,0,0-3.62-6.34l-9.06-10.42,5.89,12.68a26,26,0,0,0-4.08-2.26,68.8,68.8,0,0,1-9.06-5.44c-1.81-1.36-7.25-1.81-7.25-1.81l-13.13,5H121.4l11.32,4.53,6.34,2.72,5,10s-3.17.46-4.53-1.35a6.57,6.57,0,0,0-3.62-2.27h-3.17s-5,0-7.7-1.36-5.89,1.81-5.89,1.81l-7.26,4.7a38.45,38.45,0,0,1,6.36-2c1.36,0,3.62-2.26,3.62-2.26l13.59,4.07-2.72,3.17s-6.34,3.63-8.61,4.53-2.26,4.08-2.71,5.89S120,130,120,130l2.72-5.89,4.07-8.61s4.53-3.17,5.89-3.62,6.79-3.63,8.61-3.63H145s3.17,6.35,4.08,8.61,9.06,9.06,11.32,10a105.83,105.83,0,0,1,13.13,6.34c4.53,2.71,11.33,5.88,16.76,8.6s7.7,10.87,10,18.12,3.17,25.36,3.62,29,0,20.38,0,20.38l5.4,12.94,3.94,6.31s3.16,5.52,3.16,10.26v16.57c0,2.37,1.58,10.26,1.58,10.26s-16.58-15-18.94-17.36-15-7.1-17.37-12.63-7.1-17.36-8.68-19.73c-.81-1.22-3.1-6-5.44-10.36-2.2-4.09-4.46-7.79-5.61-7.79-2.36,0-17.36-.79-17.36-.79l12.63,5.53,11.84,15,3.94,8.68-1.58,6.31L153.19,223s-5.52,6.32-7.89,6.32,12.63,1.58,12.63,1.58,6.31,7.1,11,8.68,11.83,7.1,11.83,7.1l3.95,3.16a11,11,0,0,0,5.53,4.73c3.94,1.58,15.78,8.68,18.94,12.63s11.83,15.78,11.83,18.15,3.95,25.26,1.58,29.2-3.94,13.42-5.52,15.79a41.73,41.73,0,0,0-2.62,7.06l-1.33,0-8.68,7.1,1.58-13.41-6.31,9.47-2.37,6.31-12.63-21.31V339l-10.26-8.68L180,343,169,339l3.94,7.89H167.4l-9.47-.79-8.68,2.37L139,350.08l-15.79,2.36L110.58,358,94,365.86s49.49,5.79,62.23,8.42,34.06,10.52,41.16,10.52,16.93,7.55,23.46,5.75S210,381.64,210,381.64s18.94-1.57,22.09-1.57,21.28,3,21.28,3L282.82,382l29.79,3.61,95.5-4.73,22.09.78,11,5.57,7.18,7.06,15,1.58ZM241.58,234.85v18.94l-8.68-26Z" style="fill:#c2c2c2"></path><path d="M103.73,111.91l8.14-5.27c-1.74.64-3.16,1.19-3.16,1.19Z" style="fill:#c2c2c2"></path></g><g id="freepik--Floor--inject-21"><path d="M396.21,397.06s-4.65-2.33-9.76-5.12-13.95-6.51-19.53-7.44-8.37,0-9.76,0-11.62-7-11.62-7-7.44-1.39-9.76-1.86-2.33-1.39-2.33-1.39l-16,5s-18.4-.8-21.19-3.59-22.78,9.3-22.78,9.3l9.09-.72-8.15,7.24s12.08-2.34,13.94-1.87,6,1.39,6,1.39l-11.15,2.33,5.58,2.32-6.05,1.86-6.1,3.49c-3.66,2.09-6.79,8.15-6.79,8.15l-5.7,5.1,5.58-.93,7.37,1.72-9.23,2.46,10.69.93-7,3.72s15.34-3.26,16.73-3.26,9.76-2.32,9.76-2.32-7.9,6.51-9.76,7,9.3-1.39,9.3-1.39L293.47,425h14.88s-2.33.46,6,2.32S326,431,333,431.46a113.65,113.65,0,0,1,16.27,2.78l-24.64-2.32,22.78,5.58-9.76.93s16.27,3.25,18.12,3.25-6-1.39,11.63,2.33-23.25.46-25.57,1.39-24.17,2.33-26,2.33-8.84.93-8.84.93l47.88,4.64s2.33,1.86,10.7,2.33,7.9,1.39,18.59,2.79,22.78,1.86,22.78,1.86l-12.09-6.51s14.88.46,18.6.46h13c12.09,0,37.19-4.18,37.19-4.18l-23.71-.93-18.13-2.79s14-5.11,15.34-5.11S455.24,444,455.24,444l.93-3.72,16.27,7s-16.27-10.23-13-9.3,16.27,5.12,16.27,5.12l-7.9-7.91L488,438l-15-16,7-1s-12-12-15-14-23.81-14.58-28.9-15.29-48.5-4.64-48.5-4.64l8.76,11" style="fill:#92E3A9"></path><path d="M200.5,375.21s10.23,6,15.81,6,15.8.93,17.2.93-9.3,1.4-9.3,1.4,13.95,6.5,15.34,6.5,8.37,2.79,8.37,2.79l-23.24-2.32,14.41,5.11s-20,4.18-24.18,4.65-13.48-1.39-13.48-1.39L214.91,404s6.05.93,8.37,1.39,8.37,2.33,7,2.33-19.06-1.4-19.06-1.4l5.12,2.33-7.91.46,20.92,6.05H208.4c-3.71,0-2.78,0-11.62,1.85s-15.34,4.65-18.13,5.12-10.69,3.25-13,4.18-9.76,3.72-9.76,3.72l14.87.93-13.48,5.11s10.69.47,14.41,1.4,10.69,2.79,10.69,2.79H157.74c-1.4,0-1.86,0-7.44,1.86-5.14,1.71-26.46,8.16-33.06,9.53-.56.11-1,.19-1.34.23-4.19.46-13.48,1.86-16.74,2.32s-9.29,1.4-9.29,1.4l32.54-7.9-19.53-1.86L114,439.36s-50.21,7.44-55.32,8.83-12.09,3.25-13.94,3.72,36.25-13,36.25-13-32.07,3.72-34.4,3.72a95.41,95.41,0,0,0-9.76.47c-5.58.46-11.62,1.86-13,1.86H20.14L49,437H38l26-11-44-2,13-8,15-11H25l-15-2,19-6,10-4-13-3,18-1H54l-1-9,22,3.58,61.36-8.37,44.66.07,19-2.4" style="fill:#92E3A9"></path></g><g id="freepik--trees-3--inject-21"><path d="M205.1,325.65l18,1.16,11-11.89s-.29-9-.29-10.45,0-6.68.29-7.55,3.48-2.32,3.48-2.32l4.06-.87-4.93,4.35s-.29,2.9-.29,4.07v4.06c0,1.16-1.45,1.74,0,2a19.17,19.17,0,0,0,3.19.29l9.58-9.58a21.66,21.66,0,0,1,3.19-.58H257l2.33,1.16,1.16,2s-4.07-2.62-6.39-1.17-4.93,2.91-5.8,3.49-1.74.58-2,1.74A17.43,17.43,0,0,1,244,309.4h5.52c1.45,0,2.61-.29,4.06-.29s2.61,0,3.48.87,1.45,3.48,1.45,3.48S260,317,260,318.11a30.21,30.21,0,0,0,.29,3.19s-2.62-5.22-3.49-5.8-3.48-1.75-4.64-2.62-2-1.45-3.48-.87-1.45.87-2.9,1.45a22.58,22.58,0,0,0-2.91,1.46,53.85,53.85,0,0,0,5.52,2.61,24.15,24.15,0,0,1,4.06,2,17.74,17.74,0,0,1,.87,4.06,31.88,31.88,0,0,1-.87,4.94l-.29,2.32-1.74-7.55s-3.48-3.19-4.64-4.06-3.2-1.16-4.07-2-3.19-1.16-3.19-1.16l-5.22,3.48-8.71,9.87s-2.32,3.19-3.19,2.9-2-2.61-2-2.61-4.94-.58-6.39-.58-6.67-.29-7.54.29a23.72,23.72,0,0,1-3.2,1.45s-2.61,4.64-5.22,8.7-9.29,15.09-9.29,17.42,2,10.15,4.36,10.73,11.89,1.16,12.77,1.16,4.06,3.78,5.51,4.94,4.35,4.06,5.22,4.35a9.24,9.24,0,0,1,2.32,1.74l-7.54-2.32s-5.22-4.06-6.1-4.06-5.22-.29-5.22-.29l-2.61.29s2,4.35,3.19,4.93a29.29,29.29,0,0,1,3.77,2.9s-9.57-3.48-10.73-6.38-4.36-3.77-6.68-4.64a30.92,30.92,0,0,0-6.67-1.16s.87,5.22,1.74,6.09a12.39,12.39,0,0,1,1.74,3.48s-5.23-2.9-5.23-3.77-.58-4.64-.58-4.64-1.74-1.46-2.9-.29-2.9,2.9-3.19,4.06a15.53,15.53,0,0,1-2,3.48s-.58-4.06-.29-4.93a9.24,9.24,0,0,1,1.74-2.32l-5.22,1.74s-2.91,2.9-3.78,3.19-7.54,2.32-7.54,2.32,6.38-3.77,7.25-4.35,1.45-1.45,2.61-2.32a14.12,14.12,0,0,1,4.65-2.33,48,48,0,0,0,4.64-1.45l-7.25-.58a10.79,10.79,0,0,0-4.94-.29,33.76,33.76,0,0,0-4.35,1.74c-1.45.58-2,1.17-2.9,1.17h-5.23s5.52-2,7-2.33a11.37,11.37,0,0,0,3.77-1.45,8.64,8.64,0,0,1,4.64-1.74c2,0,3.78.58,4.94.58s2.61-1.45,2.9-2.61a65,65,0,0,1,4.64-10.45c2-3.48,6.1-10.16,6.68-11s2.32-3.19,2.32-3.19l8.71-8.41s-1.16-2.91-2.32-3.78-3.49-4.64-3.49-4.64l-4.35.87v-7.26a75.44,75.44,0,0,0-1.45-11.31c-.58-1.75-.87-2.33-1.16-3.2l-.29-.87-5.23-2.32-6.38.29-5.23.58-.58,1.45.88,3.78a14.65,14.65,0,0,1-2.62-3.49c-.58-1.45,0-4.06,0-4.06l7.84-1.16,2.9-2.9-3.19-2.62s-3.77-4.06-4.93-3.77-5.81,1.74-5.81,1.74l-2.9,3.2,2.61-5.52,5.8-2,3.49,2,4.35,3.48,2.61,2.62,1.45,2.32,1.16-.87.88-2-1.75-5.23-3.48-5.8-4.35-2.32L164.18,274l11,2.91s1.16,3.48,1.74,4.64,2.91,8.42,2.91,8.42l.87,1.74,1.45-6.1-2.61-4.35-1.74-6.09,4.64,8.12,2,4.06-2,5.23-.87,3.48,2.9,7.55,2.61,11.61,8.42,8.12,2.32.29s4.06-9.58,4.06-11,.58-5.22.58-7-.87-10.45-1.74-11.9-3.77-8.71-4.35-9.87l-3.48-7c-.58-1.16-2.33-4.94-2.62-5.81a16,16,0,0,0-3.77-4.35c-1.45-1.16-4.93-4.35-5.8-5.22s-6.39-8.71-6.39-8.71,7.84,7,8.13,7.83,5.22,4.94,5.22,4.94,1.74.58,1.74-.58v-7.55l-.58-7,.29-6.68L192,259.19l-.88,4.65,1.46,4.93,2.9,4.93s2.32,6.1,2.9,7.55,2.61,6.38,2.61,6.38l3.48,6.1s.88-6.1.88-7.26v-8.7a16.63,16.63,0,0,0-2.33-6.68,36.72,36.72,0,0,1-3.77-6.38c-.87-2-2.32-6.1-2.9-7.55s-3.48-12.77-3.48-12.77l3.48,9.29,2.61,6.09,3.19,4.94.29-7.84v-6.09c0-1.16-.29-8.13-.29-8.13l1.74,9,6.68-9.29-4.93,11.32a21.79,21.79,0,0,0-.87,4.35c0,1.45-.3,4.94-.3,4.94v3.77c0,1.16,1.46,2.32,1.75,4.06a10.25,10.25,0,0,0,1.16,3.19s3.19-5.51,3.77-7,4.35-10.16,4.35-10.16-4.35,11-4.35,11.9-2,7.55-2,7.55a24.24,24.24,0,0,0-.87,3.77,63.27,63.27,0,0,0-.29,7c0,1.17.87,7.26.87,7.26s5.51-12.77,6.09-14.22,8.13-15.09,8.42-16-3.19-18-3.77-20.9-.87-5.22-1.46-6.09-2.61-4.36-2.61-4.36l-5.22-2.9,6.09.87,2.33,3.49,2.32-5.81,4.93-5.22-4.06,6.38-2,6.1.29,3.77s2,5.51,2,7-.58,3.2,0,5.23a48.42,48.42,0,0,0,1.74,5.8,14.24,14.24,0,0,1,.87,3.48s2.32-7.83,3.48-9.28a12.32,12.32,0,0,0,2.9-7.55c.29-4.06.88-7.54,2-9a38.39,38.39,0,0,0,3.19-5.52c.58-1.16,1.74-4.06,1.74-4.06s-1.16,8.71-2.32,10.16a29.44,29.44,0,0,0-2.61,4.64V247c0,.88-2.33,4.36-2.33,4.36a26.54,26.54,0,0,0-2,3.77c-.87,2-2,4.64-2,4.64l6.1-4.35,8.41-2.9s4.36-7,5.52-7.84,5.22-2.61,6.38-3.48,5.51-3.48,5.51-3.48-4.06,5.51-4.93,6.09-7.25,4.36-7.25,4.36l-1.16,2h8.12c2,0,5.52-.58,6.39-.58h2.9L264,249l-7,3.19h-3.77l-4.35.58L244.56,254a25.12,25.12,0,0,1-3.48,1.45c-1.16.29-5.22,2-6.09,2.32s-1.16-.29-2.61,1.16-1.17,1.74-2.62,2.33l-1.45.58a7.1,7.1,0,0,1-1.74,2.32c-1.45,1.45-2.9,2.32-2.9,3.19s-8.13,20.31-8.13,20.31l-1.45,6.68-.87,3.19s6.1-5.8,7.55-6.09,5.22-1.74,7.54-2.32S242,284.15,242,284.15l5.23-3.48,2.61-2,2.61-2.32s-7,7.25-8.71,8.41-9.86,3.19-11.31,4.07-5.81,2.61-8.71,4.35-4.93,2-5.52,3.19-2.61,3.77-3.48,5.23-3.77,3.48-4.35,4.93a52.86,52.86,0,0,0-1.74,5.22C207.71,314.62,205.1,325.65,205.1,325.65Z" style="fill:#9e9e9e"></path><path d="M332.82,358.14s-5.76-15.64-8.2-20-6.85-14.67-8.81-16.63-6.35-5.87-6.35-7.82,1-10.76,2.44-13.21,4.89-12.23,4.89-12.23-2.27-7,3.27-10.12,10.91-1.61,13.36-5.52.49-.49,4.4-4.9,11.74-9.78,11.74-9.78l-8.81,3.92L335.46,265l-8.61,7.25s-.28-4,1.19-5,15.16-14.68,15.16-14.68l3.91-2.44-11.74,6.36s-3.06,4.35-4.89,4.4-4.08,2.77-4.08,2.77l-3.17,6.34-.57,2.14s-.49,3.42-2.93,3.42a11.09,11.09,0,0,0-4.9,1.47l-4.4,3.91-10.83-7.22-.9-.61-6.36-5.38,11.25,12.23,4.4,2.94s.23.19.49,2.93a38.66,38.66,0,0,0,1.61,6.81l-2.72,5.89-1.83,5.39s-2-8.31-6.35-10.75-9.79-8.32-10.76-10.27S286,271.1,285,268.65s-2.93-4.89-2.93-7.82-2.94-14.18-2.94-14.18l1.47-8.32S284,230,285.49,229s6.36-4.4,6.85-6.36,1.47-8.31,1.47-8.31l-3.92,8.31-1.46,2.45a6.21,6.21,0,0,1-2.94,1c-1.46,0-4.4,1.95-4.4,1.95l-1-12.22v-9.78s-1.95,10.75-1.95,12.71v6.36l1.95,8.31-1.46,6.85-2,4.89-4.89-7.34-9.29-8.8-2.94-6.36-10.76-7.82,8.81,10.27,2.93,6.84s5.38,4.41,6.36,5.87,3.91,4.89,4.4,6.36,2.45,2.93,2.45,4.4,2.93,9.29,3.42,11.25a20.24,20.24,0,0,0,1.95,4.4l1,4.89,1,2.94s-14.67-1-16.14-1a42.67,42.67,0,0,1-7.82-1l-5.87-2-1.53-.81L243,263.76s-2.45-2.44-3.92-2.44-8.8-2.94-8.8-2.94l10.27,5.87,6.36,5.38-7.83-.49-6.35-.49H221.92l10.76,2.45,9.78,1.95,1.95,1.47s-4.89,0-7.33,1-5.87,3.42-7.83,3.91-5.38,3.43-7.33,3.91a20.24,20.24,0,0,0-4.41,2l12.72-2.93,6.85-3.43,5.87-1h4.89s-.66,1.1-1.39,2.26c-.36.58-.73,1.17-1.06,1.66-1,1.46-4.4,7.33-4.4,7.33L253.22,276l2.44-2.45a46.47,46.47,0,0,1,6.85.49c2.44.49,7.82,2.45,9.29,2.45s5.38.49,5.38.49l2.93,1s1.47,0,2,2.94,1,2.93,2,4.4,1.46,1,3.91,4.4a18.48,18.48,0,0,0,3.91,4.4c1.47,1.47,1,1,2.93,3.92s2.94,2.93,3.92,4.89a21.8,21.8,0,0,1,1.46,3.91s-15.16-1.47-17.6-1.47-8.8-.49-10.27-.49-13.21-1.95-13.21-1.95L251.26,298l-6.36-.49a42.06,42.06,0,0,1,6.85,3.42c1.95,1.47,6.36,3.91,6.36,3.91s-11.25-.49-12.72-.49-12.71-.49-12.71-.49l10.75,2.94,10.27.49,6.85,1.95-8.8,4.89,9.78-1.95,5.87-3.43a6.75,6.75,0,0,1,3.42,0,43,43,0,0,0,8.31,1c2.45,0,14.19.49,15.65,1.47s4.89,2.93,4.89,2.93l-12.22,1h-5.38c-1.47,0,12.23,2.94,12.23,2.94h6.84L308,324.4s2,2.93,3.45,5.38,3.88,27.88,3.88,27.88l.76,6.52-1.73,3.26h7.82a24.06,24.06,0,0,0,7.34-1.47C331,365.48,332.82,358.14,332.82,358.14Z" style="fill:#9e9e9e"></path></g><g id="freepik--trees-2--inject-21"><path d="M445.23,404.36s-6.32-8.43-9.13-12.65a41.86,41.86,0,0,0-4.22-5.62v-7c0-2.11,0-6.33-2.11-16.17s-2.81-9.13-4.92-12.65a7.23,7.23,0,0,1,0-7s-8.43-7-11.24-7.73-5.63-5.62-5.63-5.62l-5.62-5.62h-21l-4.34-2.11a65.24,65.24,0,0,0-3.19-6.28l-.54-1.17s-.24-.33-.64-.84c-3.48-5.75-9.05-13.37-16.71-19.12-14.06-10.54-40.77-26.71-48.5-38.65s-18-44.17-26-56.93-8.44-30.22-7.73-34.44a101.71,101.71,0,0,1,5.62-20.38,188.18,188.18,0,0,1,9.84-20.38,12.6,12.6,0,0,1,6.32-4.92c.81-.27,2-.57,3.32-.89v9.72c0,5.37,2,3,2,3v-7.39s2.69,3.69,6.38,1.68,3.7-3.7,3.7-3.7l1.68,21.17V115a26.64,26.64,0,0,0,4.69-1.6c4.22-2.1,11.25-7.73,13.35-9.13s9.84-7.73,9.84-7.73l-15.46,7-11.95,7s-7,2.81-9.84,2.81-8.43,2.11-8.43,2.11L312.4,88.8s16.17-20.39,18.27-22.49,12.65-11.25,12.65-11.25-19.67,14.06-21.78,16.17-14.76,16.86-15.46,19-11.95,19.68-11.95,19.68V96.53l6.32-16.87L304.67,67,294.13,86l-3.52,7.74-7-6.33-2.1-4.18c.33.66,5.61,11.27,5.61,13.32s3.51,7,3.51,9.13-4.21,11.25-4.21,11.25-7.73,19.68-9.14,23.19-8.43,16.17-8.43,16.17-.71-19.68-.71-23.2,2.11-17.57,2.11-21.08.7-13.35.7-16.17,9.14-18.27,9.14-18.27l7-16.16L274.45,81.06l-6.33,10.55s8.44-24.6,8.44-28.12,2.11-16.16,2.11-19,2.81-21.09,2.81-21.09-5.63,9.84-5.63,13.36A82.55,82.55,0,0,1,273,54.36c-1.4,4.21-2.11,12-2.11,14s-2.81,9.84-2.81,9.84S267.42,62.79,266,60a61.85,61.85,0,0,0-4.84-9,31.47,31.47,0,0,0-3.59-4.32c-4.92-4.92-4.92-6.33-8.43-9.14s-7.73-12-10.54-15.46a71.1,71.1,0,0,1-4.92-7s8.43,19,9.83,21.08,9.14,11.25,9.14,11.25l9.84,16.16.7,3.52v14s-.7,2.11.71,6.33a117.4,117.4,0,0,1,2.81,12v17.57s-2.11,9.84-2.81,12a18.33,18.33,0,0,0-.71,4.92l-9.13-12.65s-6.33-8.44-9.14-16.17S240.71,93,238.61,88.09s-3.52-13.35-3.52-13.35.7,16.87,3.52,25.3,10.54,24.6,10.54,24.6l-20.38-15.46L218.22,100s9.91,13.62,15.77,19.36l-.83-.78v49l1.93-47.22a55.76,55.76,0,0,0,6.5,4.79v25.57L244.45,127c2.7,1.59,4.7,2.59,4.7,2.59l7.73,5.62,3.51,9.84s1.41,7.73,2.11,14.06a94.48,94.48,0,0,1,.7,14,116.11,116.11,0,0,0,.69,16.11c.72,5.68,11.26,40.12,14.78,43.63s5.62,12.65,7.73,16.87,2.81,10.54,5.62,13.35,2.81,6.33,5.62,7.73a8.24,8.24,0,0,1,2.62,2.52c.88,6.39,1.45,13.17,1.45,13.17s14.91,11,17,11.72a18.57,18.57,0,0,1,4.14,2.79c.61,2.61.74,5.35,2.18,7.76,2.11,3.51,2.11,5.62,2.11,5.62v2.07a6,6,0,0,1-4.92-3.48l-9.84-6.32-11.24-3.52H287.8s13.36,4.92,15.46,5.63,3.52,7.73,3.52,7.73l5.62,5.62c2.81,2.81,9.84,4.92,12.65,7s10.54,3.51,15.46,4.92a82.8,82.8,0,0,0,9.9,2.09s16.11,2.13,18.92,2.13,6.32,1.4,11.24,3.51,4.92,10.54,6.33,15.46,0,9.14,0,12.65a4.39,4.39,0,0,1-3.51,4.22l-4.22,5.62-15.46,1.41s16.86,4.21,19.68,4.21a26.67,26.67,0,0,0,5.62-.7s12.65,2.11,15.46,3.51,13.35,0,15.46,0,9.14,10.55,9.14,10.55l24.6,9.13ZM311.88,115.19a34.9,34.9,0,0,1-2,4.34c-1.22,2.21-2.74,4.09-4.32,4-3.6-.33-3.69-5.75-3.69-6C305.09,116.76,308.77,116,311.88,115.19Z" style="fill:#828282"></path><path d="M371.35,389.23s.45-16.76,0-20.38-1.36-21.74-3.63-29-4.53-15.4-10-18.12-12.23-5.89-16.76-8.61a108.82,108.82,0,0,0-13.14-6.34c-2.26-.9-10.41-7.7-11.32-10s-4.07-8.61-4.07-8.61h-3.63c-1.81,0-7.25,3.17-8.6,3.63s-5.89,3.62-5.89,3.62l-4.08,8.61L287.55,310s.91-8.15,1.36-10,.46-5,2.72-5.89,8.61-4.53,8.61-4.53l2.71-3.17-13.58-4.08s-2.27,2.27-3.63,2.27-9.51,3.17-9.51,3.17l-5,4.08,15.4-10s3.17-3.17,5.89-1.81,7.7,1.36,7.7,1.36h3.17a6.62,6.62,0,0,1,3.62,2.26c1.36,1.82,4.53,1.36,4.53,1.36l-5-10-6.34-2.72-11.33-4.53H275.32l13.14-5s5.43.45,7.25,1.81a69.39,69.39,0,0,0,9.05,5.44,26,26,0,0,1,4.08,2.26L303,259.69,312,270.11a17.3,17.3,0,0,1,3.63,6.34c1.35,4.07,3.17,7.7,3.62,9.06s1.36,5.88,2.26,7.24,1.82,4.08,3.17,7.25,2.27,5.43,5,5.43a35.13,35.13,0,0,1,10.41,2.27c1.82.91.46,0,5,1.81a56.57,56.57,0,0,0,10.41,2.72l4.08,3.17s-4.08-8.15-5.43-10.87-11.78-16.76-11.78-16.76l3.62-8.15s2.27-6.8,2.27-8.16.45-10,.45-10-4.53-8.61-4.53-10-1.81-10.88-1.81-10.88.45-8.6.9-10.41,0-5,.91-7.7,2.27-9.51,2.27-9.51l1.35-16.76.46,16.76v10.87a62.82,62.82,0,0,1-.91,7.24,19.63,19.63,0,0,0-.9,5.44c0,1.81.45,2.72.45,5.89a33.2,33.2,0,0,0,.9,6.79l1.82,4.08s2.71,0,4.53-3.63,3.17-5,5-9.51,1.81-6.79,2.72-8.6,1.81-7.25,1.81-7.25.45,11.32-.46,13.13-1.81,5.44-2.71,6.8-.91,3.17-2.27,5.89L355,256.52,353.68,262v5c0,2.72-.45,14.05-.45,14.05s-.91,3.17-2.27,4.07-3.17,4.53-3.17,4.53,10.42,9.51,10.87,10.87a78,78,0,0,0,4.08,10c2.27,4.53,4.08,5.89,7.25,9.06a57.41,57.41,0,0,0,8.15,6.34l7.25-21.29s6.34-12.23,8.6-14,5-5,7.7-7.25,3.17-5.43,7.25-7.7,8.61-10,8.61-10a8.72,8.72,0,0,1,1.36-4.08c1.35-2.26,3.17-14,3.17-14l.9,10a12,12,0,0,1-.45,3.17L420.72,266l-2.27,3.17s10-8.61,11.78-10,3.62-3.18,5.43-4.53,3.63-4.53,6.35-6.35,5-3.62,5-3.62l-7.25,10.87c-.9,1.36-7.7,6.34-9.06,7.25s-1.36,1.81-4.07,4.07-6.8,5.89-6.8,5.89-7.25,6.34-9.06,7.25-3.17,3.62-5,5.44-3.17,5-4.53,5.88-4.53,3.63-4.53,3.63-2.72,2.71-3.17,4.07-1.36,3.17-1.36,4.53a30.85,30.85,0,0,1-1.36,5.44s19.93-7.25,21.74-7.7,8.61-1.81,12.69-7.7,6.34-8.61,7.7-11.33,1.81-5,4.53-8.15a12,12,0,0,1,6.79-4.53,32.22,32.22,0,0,1,7.7-.9l-6.34,3.62-5,3.62-1.81,2.72-.91,3.62s4.08-4.07,6.34-4.07,5.44-.91,7.7-.91,3.62,1.36,6.79,2.27,5.44,1.81,7.7,4.07a19.89,19.89,0,0,1,3.63,5.44s-4.53-5-6.34-5a30.21,30.21,0,0,1-6.8-1.36,9,9,0,0,0-5-.46,29.31,29.31,0,0,0-5.43,2.72l-2.27,1.81-1.36,1.82,10.42,2.26s1.36-.45,5.43,2.27,5,1.81,5,4.07a32.36,32.36,0,0,0,.45,6.8c.45,1.81,1.36,6.79,1.36,6.79l-5.44-9.06s-1.36-3.62-2.71-4.08-2.27-1.81-5.89-2.71-6.8-1.81-6.8-1.81l-.9,3.62s5,4.08,5.43,6.34,2.72,6.34,2.72,8.15.91,3.63,0,5-2.26,8.15-2.26,8.15V312.68l-4.53-7.25-3.63-5-5.89-10-5.43,1.36-3.62,6.34-6.35,4.53s-10.41,5-12.22,5.43a64.1,64.1,0,0,0-8.16,3.63c-1.81.9-5,2.71-5,2.71l-3.62,1.82a7.7,7.7,0,0,0-1.82,3.17c-.45,1.81-2.26,10-2.26,10l-.91,3.17s0,1.36,1.82,6.8,4.07,9,4.53,12.22,2.26,8.16,2.26,10,.91,4.53.91,7.25,2.71,24.91,4.07,26.72a18.93,18.93,0,0,1,2.27,4.53s3.17,5.43,4.53,6.34a57.74,57.74,0,0,0,5.43,2.72s-14.49-8.61-16.3-9.06-5-3.62-10.42-6.34-6.34-1.81-7.7-2.27S371.35,389.23,371.35,389.23Z" style="fill:#444f54"></path><path d="M62.44,395.2a21.26,21.26,0,0,1,0-10.23c1.39-5.58,7.9-12.55,7.9-12.55s-.46,10.69.47,9.3,6-12.56,6-12.56,4.65,7.44,4.65,5.12-4.65-12.09-4.65-12.09l6.51,4.65,1.86-13,4.65,7-1.4-14.88,5.58,12.55,3.72-7,.46,8.37,9.3-13.48s-7,20.45-6,19.06,10.69-13,10.69-13-5.11,13.95-3.72,13,14-13,14-13l.46,9.3,9.3,9.76,4.18,3.72,4.19-12.09,4.46,6.09-.28-5.16s4.65,12.55,4.65,10.23V352.43l6.51,18.13-1.4-17.2s5.58,22.31,5.58,20.92,1.58-23.1,1.58-23.1l4.46,18.45,3.26-13.95s.46,9.77,1.39,8.37S181,352.89,181,352.89l-6,11.63,16.73-8.37s-12.09,10.69-9.3,10.23,17.2-2.33,17.2-2.33l-8.83,6.51,9.3,2.32,9.29,3.72-12.55-1.86,19.53,6.51L200,379.39l16.73,7.44-12.55-2.33s16.74,7,17.67,8.37,5.57,2.79,5.57,2.79l-14.41-1.39s-27.42-5.58-31.14-5.58-16.27.46-20,1.86-7.9,5.11-13,5.11-12.08,1.4-13.48.93-10.69-6-13.48-6-6.32-.54-8.27.66a52.75,52.75,0,0,1-7.07,4c-2.32.93-10.59,2.5-12.27,3.34s-5.86-10.32-5.86-10.32l-3.72,5.12V378.46L81,391.94l-6-8.36,2.33,8.36s-5.58-4.65-5.12-3.25,3.26,6.51,3.26,6.51l-5.58-2.33.46,4.19Z" style="fill:#595959"></path><path d="M430.83,410.23l-13.7-9.92,13.54,5.74,17.59,7.45-4.9-4.36-13.93-6.56-4.59-2.16,18,3.82-12.33-5.48-2.38-1.06,16.34,4.36L428.1,395l-12.53-2.73,9.27-1.09,15.79-3.81H421.57c-4.91,0-13.08,1.63-13.08,1.63l3.82-3.81,7.62-3.81,9.81-4.36-15.8,2.18-9.8,3.81,19.06-19.06s-12,6.53-14.16,7.62-6.54,6-6.54,6l1.09-10.35L392.7,380.27l-5.1,6.8c-4.09-1.57-11-4.24-12.31-4.89-1.86-.93-14-4.18-14-4.18l11.62-.47a13.61,13.61,0,0,0-7-2.32c-3.72,0-11.16.93-11.16.93a27.23,27.23,0,0,1,2.33-3.72c1.39-1.86,6.51-5.58,6.51-5.58L351.58,371l2.33-6.5-6.51,4.18,3.72-7s-15.81,7.43-17.2,8.83,0-6.51,0-6.51l-13.48,3.26,2.32-7S314.39,371,313,372s0-2.32,0-2.32,3.72-10.23,4.18-12.55,7-16.27,7-16.27-8.83,13-11.62,18.59a45.33,45.33,0,0,0-3.72,12.09V356.61c0-2.79-1.86-25.1-1.86-25.1s-.93,13-.93,20.45v17.67s-1.39-7.44-3.25-13.95-11.16-14.41-11.16-14.41a121.36,121.36,0,0,1,9.3,16.27,44.77,44.77,0,0,1,3.72,16.74c0,2.32-3.72-4.65-3.72-4.65l-.93,4.18-3.72-6.5v8.36l-5.11-8.83-.47,6-5.57-7-3.72,3.25.93,1.86-7-3.25s5.12,5.58,5.58,7-9.76-6-9.76-6l3.25,9.3-13-4.19,10.69,8.37-14.87.93L267,384.5l-13,3.26,20,2.32-.89,3.23,9.51-9.06,4.08-2.27s9.15-3.05,12.4-3.52S313,378,313,378l12.08-4.19s18.13,3.26,22.78,6.05,15.34,6.5,20.92,7.9c4.93,1.23,11.66,2.82,16.05,3.82l4.05,5.58,7.48.95c2.28,1.83,4.31,3.59,5.43,4.52,2.78,2.33,6.5,4.19,13,6.05s15.81,5.11,15.81,5.11l-5.12-4.18-17.2-8.84,3.28-.17Z" style="fill:#595959"></path><path d="M233,190.54l-19.33,14.67s7.33-15.34,10-23.34,3.33-24,3.33-24-1.33,8-3.33,12.67-3.34,8.67-6,16S209,201.87,209,201.87l-8.67,12a17.72,17.72,0,0,0-.66-4.66c-.67-2-2.67-11.34-2.67-11.34V181.21a108.27,108.27,0,0,1,2.67-11.34c1.33-4,.66-6,.66-6V150.54l.67-3.33,9.3-15.29,2.2,17.58V129.29c2.27-2.72,5.64-6.79,6.5-8.08,1.33-2,9.33-20,9.33-20a69,69,0,0,1-4.66,6.66c-2.67,3.34-6.67,12-10,14.67s-3.34,4-8,8.67a29.74,29.74,0,0,0-3.41,4.1,59.12,59.12,0,0,0-4.59,8.56c-1.34,2.67-2,17.34-2,17.34s-2.67-7.34-2.67-9.34a58.79,58.79,0,0,0-2-13.33,78.7,78.7,0,0,1-2.67-16.67c0-3.33-5.33-12.66-5.33-12.66s2.67,17.33,2.67,20,2,14.66,2,18,8,26.66,8,26.66l-6-10-12-18.66,6.66,15.33S193,175.21,193,177.87s.67,12,.67,15.34,2,16.66,2,20-.67,22-.67,22-6.67-12-8-15.34-8.67-22-8.67-22-4-8.66-4-10.66,3.34-6.67,3.34-8.67,5-12,5.31-12.64l-2,4-6.67,6L171,168.54l-10-18,4,12,6,16v12.67s-10.67-16.67-11.33-18.67-12.67-16-14.67-18-20.67-15.33-20.67-15.33,10,8.66,12,10.66,17.34,21.34,17.34,21.34l16.66,25.33s-5.33-2-8-2-9.33-2.67-9.33-2.67l-11.33-6.66L127,178.54s7.33,6,9.33,7.33,8.67,6.67,12.67,8.67a40.51,40.51,0,0,0,7.5,2.27V217.5l2.74-20.06c2.27.5,4.53,1,6.46,1.41V240.5L168,199.39c.67.17,1.25.33,1.72.48a12,12,0,0,1,6,4.67A179.86,179.86,0,0,1,185,223.87a97.07,97.07,0,0,1,5.33,19.34c.67,4,.29,20.55-7.33,32.66s-17.33,42.67-24.67,54-32.66,26.67-46,36.67-20,26-20,26L69,403.87s8-.66,12-2,6-.66,9.33-1.33,4-2,4-2,10-1.33,14-3.33,5.34-4,5.34-4l28,3.33-2-3.33v-6s0-2,2-5.34,1.33-7.33,3.33-10.66,8-11.34,13.33-15.34,6.67-8.66,9.34-10,2.66-4.66,5.33-7.33,3.33-8.67,5.33-12.67,4-12.66,7.34-16,13.33-36,14-41.39a108.9,108.9,0,0,0,.65-15.27,89,89,0,0,1,.67-13.34c.67-6,2-13.33,2-13.33l3.33-9.33,1.51-1.1,2.66,69.39V212.18l3.17-2.31s1.84-.92,4.33-2.38v41l4.28-43.71a49.16,49.16,0,0,0,4.72-3.58c5.33-4.67,16-19.34,16-19.34Z" style="fill:#444f54"></path></g><g id="freepik--trees-1--inject-21"><path d="M126.76,328.53l-28.08,1.82L81.47,311.78s.45-14,.45-16.31,0-10.42-.45-11.78S76,280.07,76,280.07l-6.34-1.36,7.7,6.8s.45,4.52.45,6.34v6.34c0,1.81,2.27,2.72,0,3.17a30.08,30.08,0,0,1-5,.45l-15-14.95a34,34,0,0,0-5-.9H45.68l-3.62,1.81-1.81,3.17s6.34-4.08,10-1.81,7.7,4.53,9.06,5.43,2.72.91,3.17,2.72,3.63,5.89,3.63,5.89H57.46c-2.26,0-4.08-.45-6.34-.45s-4.08,0-5.44,1.36-2.26,5.43-2.26,5.43-2.27,5.44-2.27,7.25a47.46,47.46,0,0,1-.45,5s4.08-8.15,5.44-9.06,5.43-2.72,7.24-4.07,3.17-2.27,5.44-1.36,2.26,1.36,4.53,2.26a37.51,37.51,0,0,1,4.53,2.27,82.41,82.41,0,0,1-8.61,4.07A37.94,37.94,0,0,0,52.93,319a27.74,27.74,0,0,0-1.36,6.34,49.33,49.33,0,0,0,1.36,7.7l.45,3.63,2.72-11.78s5.44-5,7.25-6.34,5-1.81,6.34-3.17,5-1.81,5-1.81L82.82,319l13.59,15.4s3.63,5,5,4.53,3.17-4.07,3.17-4.07,7.7-.91,10-.91,10.42-.45,11.78.45a36,36,0,0,0,5,2.27s4.08,7.24,8.15,13.59,14.5,23.55,14.5,27.17-3.17,15.86-6.8,16.76S128.57,396,127.21,396s-6.34,5.89-8.6,7.7-6.8,6.34-8.16,6.8-3.62,2.71-3.62,2.71l11.78-3.62s8.15-6.34,9.51-6.34,8.15-.45,8.15-.45l4.08.45s-3.17,6.79-5,7.7a45.56,45.56,0,0,0-5.89,4.53s14.94-5.44,16.76-10,6.79-5.88,10.41-7.24,10.42-1.81,10.42-1.81-1.36,8.15-2.72,9.51-2.71,5.43-2.71,5.43,8.15-4.53,8.15-5.89.9-7.24.9-7.24,2.72-2.27,4.53-.46,4.53,4.53,5,6.35,3.17,5.43,3.17,5.43.9-6.34.45-7.7-2.72-3.62-2.72-3.62l8.16,2.72s4.52,4.52,5.88,5,11.78,3.62,11.78,3.62-10-5.89-11.32-6.79-2.27-2.27-4.08-3.63a21.66,21.66,0,0,0-7.25-3.62,74.64,74.64,0,0,1-7.24-2.26l11.32-.91s4.53-1.36,7.7-.45a52.48,52.48,0,0,1,6.79,2.71c2.27.91,3.17,1.82,4.53,1.82h8.16s-8.61-3.17-10.87-3.63a17.8,17.8,0,0,1-5.89-2.26c-1.36-.91-4.08-2.72-7.25-2.72s-5.89.91-7.7.91-4.08-2.27-4.53-4.08a101.61,101.61,0,0,0-7.25-16.31c-3.17-5.43-9.51-15.85-10.41-17.21s-3.63-5-3.63-5l-13.59-13.14s1.82-4.53,3.63-5.88,5.43-7.25,5.43-7.25l6.8,1.36V310c0-2.71,1.36-14.94,2.26-17.66s1.36-3.62,1.81-5l.46-1.36,8.15-3.63,10,.46,8.16.9L192,286l-1.36,5.89s3.17-3.17,4.08-5.44,0-6.34,0-6.34l-12.23-1.81-4.53-4.53,5-4.08s5.89-6.34,7.7-5.89,9.06,2.72,9.06,2.72l4.53,5-4.07-8.6-9.06-3.17-5.44,3.17-6.79,5.43-4.08,4.08L172.51,276l-1.82-1.35-1.35-3.18,2.71-8.15,5.44-9.06,6.79-3.62,6.34-2.72-17.21,4.53s-1.81,5.44-2.72,7.25-4.52,13.13-4.52,13.13l-1.36,2.72L162.54,266l4.08-6.79,2.72-9.52-7.25,12.69-3.17,6.34,3.17,8.15,1.36,5.43-4.53,11.78-4.08,18.12-13.13,12.68-3.63.45s-6.34-14.94-6.34-17.21-.9-8.15-.9-10.87,1.35-16.3,2.71-18.57,5.89-13.59,6.8-15.4l5.43-10.87c.91-1.81,3.63-7.7,4.08-9.06s3.62-5,5.89-6.79,7.7-6.8,9.06-8.15,10-13.59,10-13.59-12.23,10.87-12.68,12.23-8.15,7.7-8.15,7.7-2.72.9-2.72-.91V222.09l.9-10.87-.45-10.41-4.53,24,1.36,7.25-2.26,7.7-4.53,7.7s-3.63,9.51-4.53,11.78-4.08,10-4.08,10l-5.43,9.51s-1.36-9.51-1.36-11.32V253.8a25.9,25.9,0,0,1,3.62-10.42,57.71,57.71,0,0,0,5.89-10c1.36-3.17,3.62-9.51,4.53-11.78s5.43-19.93,5.43-19.93l-5.43,14.5-4.08,9.51-5,7.7-.45-12.23v-9.51c0-1.82.45-12.69.45-12.69l-2.72,14-10.42-14.5,7.7,17.67a34,34,0,0,1,1.36,6.79c0,2.26.46,7.7.46,7.7v5.89c0,1.81-2.27,3.62-2.72,6.34a15.9,15.9,0,0,1-1.81,5s-5-8.6-5.89-10.87-6.8-15.85-6.8-15.85,6.8,17.21,6.8,18.57,3.17,11.78,3.17,11.78a38.51,38.51,0,0,1,1.36,5.88,99.47,99.47,0,0,1,.45,10.87c0,1.82-1.36,11.33-1.36,11.33s-8.6-19.93-9.51-22.2-12.68-23.55-13.14-24.91,5-28.08,5.89-32.61,1.36-8.15,2.27-9.51,4.07-6.8,4.07-6.8l8.16-4.53-9.51,1.36-3.63,5.44-3.62-9.06-7.7-8.15,6.34,10,3.17,9.51-.45,5.89S100,202.62,100,204.88s.9,5,0,8.16-1.82,7.24-2.72,9.05A22.16,22.16,0,0,0,96,227.53S92.34,215.3,90.52,213A19.25,19.25,0,0,1,86,201.26c-.46-6.34-1.36-11.78-3.18-14a60,60,0,0,1-5-8.61c-.9-1.81-2.72-6.34-2.72-6.34s1.82,13.59,3.63,15.85a46.14,46.14,0,0,1,4.07,7.25v10.42c0,1.36,3.63,6.79,3.63,6.79a41.75,41.75,0,0,1,3.17,5.89c1.36,3.17,3.17,7.25,3.17,7.25l-9.51-6.8-13.14-4.53s-6.79-10.87-8.6-12.23-8.16-4.07-10-5.43-8.6-5.44-8.6-5.44,6.34,8.61,7.7,9.52S62,207.6,62,207.6l1.81,3.17H51.12c-3.17,0-8.61-.91-10-.91H36.62l-1.81-.9,10.87,5h5.89l6.8.91,6.79,1.81a38.7,38.7,0,0,0,5.44,2.26c1.81.46,8.15,3.17,9.51,3.63s1.81-.46,4.07,1.81S86,227.08,88.26,228l2.26.91a11.18,11.18,0,0,0,2.72,3.62c2.27,2.27,4.53,3.63,4.53,5s12.68,31.71,12.68,31.71l2.27,10.42,1.36,5s-9.51-9.06-11.78-9.51-8.15-2.72-11.78-3.63-21.28-7.7-21.28-7.7l-8.16-5.43L57,255.16l-4.08-3.62s10.87,11.32,13.59,13.13,15.4,5,17.66,6.34,9.06,4.08,13.59,6.8,7.7,3.17,8.61,5,4.07,5.89,5.43,8.15,5.89,5.44,6.8,7.7a82.58,82.58,0,0,1,2.71,8.15C122.68,311.32,126.76,328.53,126.76,328.53Z" style="fill:#263238"></path><path d="M319.71,368.85s-4.53,4.53-7.7,5.88-2.26,3.18-10,2.72-9.51-1.81-14.5-1.81-6.79-1.36-7.24.91-2.27,8.6-2.27,8.6l-.9,4.08-2.72,2.26-.76,1-.6.8,5.43-1.36,4.08-3.17v-4.53l4.08-2.27a4.24,4.24,0,0,0,2.72,0c1.81-.45,4.52-.9,4.52-.9a2.4,2.4,0,0,1,3.18-1.36c2.26.9,3.17,2.71,5.88,2.71s14.5-3.17,14.5-3.17c1.36.91-2.72,9.52-5.89,10.87s-4.08,3.18-8.61,3.63A45.32,45.32,0,0,0,292.54,396c-2.72.91-4.53.46-8.16,1.81s-6.34,1.82-7.7,3.18-5,6.34-6.79,8.15a35.25,35.25,0,0,0-3.62,4.53l10.87-5.44,3.62-5,3.62-.45-4.07,6.34-3.17,5.89-1.82,2.71,9.06-7.24a50.67,50.67,0,0,1,2.72-6.34c.91-1.36.91-1.36,2.72-2.27s3.62.91,6.79-.9,5.44-3.18,7.25-3.18,0,1.36,4.08,0a47,47,0,0,1,7.24-1.81l2.72-1.36-7.7,11.78s-4.53,5-4.53,6.34v5.44l-.45,4.53,5-9.52a14.94,14.94,0,0,1,4.53-6.34c3.62-3.17,5.44-4.07,5.89-5.88a12,12,0,0,1,1.81-3.63s4.08,2.72,5.43,4.53,1.82,1.36,2.72,5.44,2.72,7.7,2.72,9.51a18.39,18.39,0,0,0,.91,4.53l.45-7.7v-4.08l-1.36-6.79-2.72-4.53,4.53,1.81s2.27,1.36,5.89,3.17l10,5,2.72,2.72s-6.79-9.06-8.15-9.06-13.14-7.25-15.4-8.6a23.71,23.71,0,0,1-4.08-3.18l5.89-7.24a6.63,6.63,0,0,1,3.62-2.27c2.27-.45,3.18-1.81,5-.9s3.62,4.53,5.43,4.53,1.36-.91,5.44.9l4.07,1.81s1.36,2.27,5.44,2.72,4.53.91,7.7.45,1.36-1.35,5-.9A21.51,21.51,0,0,1,380,391s-13.59-6.34-16.76-6.79-7.7-.46-9.05-2.27-4.53-3.17-5.44-4.53a9.52,9.52,0,0,1-1.81-4.53c0-1.36.45-12.23.45-14.49s.91-15.85.91-15.85L370,297.28a29.52,29.52,0,0,0,5-4.53c1.81-2.26,19-11.32,19.93-15.4s5-11.32,6.79-14.94,5.89-12.69,5.89-12.69l7.25-7.7,21.29-9.51s5-2.26,6.34-5,3.62-5.89,5-8.61,5.44-10,5.44-10l-5,4.08-8.15,11.77s-.45,3.63-1.81,3.63-5.89,1.35-7.25,1.35-5,2.27-6.79,2.72a20.49,20.49,0,0,0-3.63,1.36s2.72-5.89,4.53-6.34a18,18,0,0,0,6.8-3.17c2.26-1.81,5-5.89,6.34-6.8s1.81-3.62,3.17-5.43-6.34,5.89-7.7,7.25-.91,2.71-4.53,4.07-5.89,2.72-7.7,2.72a3.41,3.41,0,0,0-2.72,1.36l-2.26,6.34s-2.27,3.17-4.08,4.08-5.43,4.53-5.43,4.53l-4.08-11.33v4.08c0,1.36.45,7.25.45,7.25l.46,4.53s-.46,2.26-.91,3.62a60.4,60.4,0,0,0-2.26,6.34c-1.36,4.53-2.27,10.42-4.08,12.68s-3.62,6.8-5,6.8-11.78,3.17-14,4.53-6.35,4.07-6.35,4.07l24-54.8s-3.17-4.53-3.17-6.34S389,218,389,218s-.9-5.89-2.72-.46-2.26,7.7-4.07,13.14-2.72,10.42-4.53,12.23-3.63,8.61-4.53,10-2.72,6.8-2.72,6.8.91-12.68,1.36-15.85-.45-10.42.45-14.5a50.86,50.86,0,0,1,3.63-10.87c1.81-4.08,3.62-5.43,4.07-7.25s1.36-3.62,1.36-5.88V194c0-1.81-.9-11.32-.9-11.32l-.91,14.95s.45,4.52,0,5.88-1.81,4.08-2.26,5.44-2.27,4.53-3.63,5.43l-1.36.91s-5.43-10.42-5.43-12.68-.91-7.25-.91-9.06v-7.7l-1.81,16.76s1.36,8.6,2.26,10,3.18,5.89,3.18,7.7v3.17a75.78,75.78,0,0,1-1.36,10c-.46,1.81-1.36,6.34-1.82,9.51s0,7.7,0,9.51.46,6.8-.45,10-2.72,9.51-2.72,11.32-1.35,4.53-1.35,6.34-6.8,10.42-6.8,10.42L352.78,295a56.85,56.85,0,0,1-6.8-5c-1.81-1.81-5-5.43-5.43-9s-3.63-22.2-3.63-24.46-1.81-1.36.46-4.53,5.43-9.06,7.24-12.23,2.72-8.15,5-10.87,3.17-6.8,4.53-9.06S357.31,209,357.31,209l-5.44,10.87s-.91-.45-4.08,6.34-3.17,10.42-4.53,11.32-2.26,4.53-4.07,5.89A14.66,14.66,0,0,0,336,247l-.91-10.42a34.56,34.56,0,0,0,2.27-6.34,69.15,69.15,0,0,0,1.81-10c0-1.36,1.36-1.81,0-5s-3.17-7.7-3.17-7.7l.45,10-3.62,10.88c-.46,1.35-2.72,8.15-2.72,8.15l-.91,3.62s1.82,5.44,1.82,7.25v5l-10-9.51s-10.42-14-11.78-15.85-8.15-9.52-8.15-9.52L298,209l1.36-15V181.33c0-1.36-3.17-8.61-3.17-8.61L293,161.4l1.81,14,.91,7.7v17.21c0,1.36-6.8-5.89-6.8-5.89s-4.07-3.62-5-5.43-6.79-10-6.79-10l-3.17-5s5.43,12.68,5.88,14,5,7.7,5,7.7l5,6.34s-7.7-1.81-9.51-1.81a17.74,17.74,0,0,1-6.34-.9c-2.72-.91,0-1.81-4.53-2.72a60.1,60.1,0,0,1-9.06-2.72s11.32,7.25,13.59,9.06a16.77,16.77,0,0,0,8.6,3.17c2.27,0,12.68,7.25,12.68,8.61s1.36,4.53,3.17,6.34a63.22,63.22,0,0,1,5.89,7.25c2.72,3.62,4.08,4.07,7.25,8.6s9.51,10.87,9.51,12.23,1.36,2.27,2.72,4.08,5,5,5,6.79,2.27,3.62,2.27,5,1.81,0,1.81,3.17,3.62,22.65,3.62,22.65,1.36,1.81,3.17,4.08a69.21,69.21,0,0,1,4.08,6.34c.9,1.36,4.07,5.43,4.07,5.43l-7.7,15.4s-2.71,7.25-4.53,10a71.77,71.77,0,0,0-5.88,11.77c-1.36,3.63-2.72,8.61-3.63,10.88S319.71,368.85,319.71,368.85Z" style="fill:#263238"></path></g><g id="freepik--Bats--inject-21"><path d="M131.17,166.06a12.15,12.15,0,0,0-1.83-1l-.18,0-.23,0-.27,0h-.14l-.29,0c-.34,0-.68,0-.92,0a1.85,1.85,0,0,0-.78.22l.1-.19c0-.09.27-.2.27-.2a1,1,0,0,0-.5.29,10,10,0,0,1-1.09,1.3,3.21,3.21,0,0,1-.57.43,2.92,2.92,0,0,0,.35-.81c.06-.2,0-.45,0-.41a2.39,2.39,0,0,1-.41.43,5,5,0,0,1-.64.33s-.15-.3-.39-.34a.71.71,0,0,0-.37,0v0a1.67,1.67,0,0,1-.13-.64c0-.3.11-.49.06-.5s-.14.15-.26.35a10.5,10.5,0,0,1,0-1.25,1,1,0,0,0-.23-.53s.12.22.09.31,0,0,0,.07a.87.87,0,0,1,0,.1V164a1.82,1.82,0,0,0-.49-.65,10.54,10.54,0,0,0-1.67-1.16A2.55,2.55,0,0,0,120,162l-.52-.08-.17,0-.5-.06-.21,0h0a2,2,0,0,0,.35.19,2.2,2.2,0,0,1,.9,1.21,1.63,1.63,0,0,1-.3,1.05s.94.33,1.06,1.05a2.31,2.31,0,0,1-.24,1.36,3.19,3.19,0,0,1,2.14.74,1.05,1.05,0,0,1,.14.2s0,.08,0,.11a.91.91,0,0,0,0,.41.84.84,0,0,1-.42.34s.82.48.81,1.09l0-.1A.76.76,0,0,1,124,169l.17,0a.61.61,0,0,1,.46-1,3.24,3.24,0,0,1,2.15.73,2.32,2.32,0,0,1,.64-1.22,1.72,1.72,0,0,1,1.49-.18,1.62,1.62,0,0,1,.4-1,2.2,2.2,0,0,1,1.45-.41,1.51,1.51,0,0,0,.41.07Z" style="fill:#263238"></path><path d="M118.57,158.93a11.91,11.91,0,0,0-2.06-.09l-.17,0-.23.07-.25.09-.13,0-.27.11a6.63,6.63,0,0,0-.83.39,1.77,1.77,0,0,0-.62.52s0-.12,0-.21.16-.29.16-.29a1,1,0,0,0-.34.47,8.62,8.62,0,0,1-.44,1.64,2.69,2.69,0,0,1-.33.63,2.89,2.89,0,0,0,0-.89c0-.2-.16-.42-.16-.37a2.12,2.12,0,0,1-.2.56,4.14,4.14,0,0,1-.43.57.71.71,0,0,0-.5-.14.75.75,0,0,0-.33.15l0,0a1.65,1.65,0,0,1-.39-.53c-.11-.28-.11-.49-.16-.48a1.25,1.25,0,0,0-.09.43c-.31-.54-.43-.93-.54-1.13a1,1,0,0,0-.43-.39s.2.16.22.25,0,0,0,.07l0,.1v0a1.78,1.78,0,0,0-.72-.38,11.23,11.23,0,0,0-2-.35,3.2,3.2,0,0,0-.64.12l-.51.14-.16,0-.48.16-.2.06h0a1.55,1.55,0,0,0,.4,0,2.26,2.26,0,0,1,1.33.72,1.61,1.61,0,0,1,.16,1.07s1-.09,1.41.51A2.29,2.29,0,0,1,109,164a3.23,3.23,0,0,1,2.26-.23l.22.12,0,.11a1,1,0,0,0,.22.35.82.82,0,0,1-.24.48s.94.09,1.19.64v-.1a.76.76,0,0,1,.6-.76l.19,0a.6.6,0,0,1,0-1.08,3.2,3.2,0,0,1,2.25-.25,2.29,2.29,0,0,1,.07-1.38c.27-.67,1.27-.79,1.27-.79A1.6,1.6,0,0,1,117,160a2.17,2.17,0,0,1,1.14-1,1.93,1.93,0,0,0,.41-.12Z" style="fill:#263238"></path><path d="M119.16,147.77a17,17,0,0,0-2.92-.13l-.25.07-.31.1-.36.13-.19.08-.39.15c-.45.19-.89.39-1.18.55a2.63,2.63,0,0,0-.88.75s0-.18,0-.31.22-.41.22-.41a1.43,1.43,0,0,0-.47.66,13,13,0,0,1-.63,2.34,4,4,0,0,1-.47.9,3.72,3.72,0,0,0,0-1.26c0-.29-.22-.6-.23-.53a2.57,2.57,0,0,1-.27.8,6.29,6.29,0,0,1-.62.8,1,1,0,0,0-.71-.2,1.19,1.19,0,0,0-.47.22l0,0a2.44,2.44,0,0,1-.56-.76c-.14-.39-.15-.69-.22-.67s-.09.28-.12.6a16,16,0,0,1-.77-1.6,1.44,1.44,0,0,0-.61-.55s.28.22.31.35,0,.07,0,.1a1,1,0,0,1,0,.14l0,.06a2.51,2.51,0,0,0-1-.55,16.05,16.05,0,0,0-2.84-.48,3.9,3.9,0,0,0-.92.16l-.72.2-.23.08-.68.21-.28.1h0a2,2,0,0,0,.58,0,3.24,3.24,0,0,1,1.88,1,2.3,2.3,0,0,1,.23,1.54s1.42-.13,2,.72a3.27,3.27,0,0,1,.5,1.89s2-.93,3.21-.34l.31.18a.88.88,0,0,0,.05.15,1.2,1.2,0,0,0,.3.5,1.21,1.21,0,0,1-.33.69s1.34.12,1.69.91V157a1.08,1.08,0,0,1,.85-1.08,1.62,1.62,0,0,1,.27,0,.87.87,0,0,1,0-1.55c1.12-.85,3.21-.36,3.21-.36a3.25,3.25,0,0,1,.09-2c.4-1,1.81-1.13,1.81-1.13a2.31,2.31,0,0,1-.1-1.55,3.15,3.15,0,0,1,1.63-1.39,2.34,2.34,0,0,0,.57-.17Z" style="fill:#263238"></path><path d="M136.82,158.19a16,16,0,0,0-2-1.92l-.22-.11-.29-.12-.34-.13-.18-.06-.37-.14a10,10,0,0,0-1.19-.34,2.31,2.31,0,0,0-1.09,0s.12-.12.2-.22a1.12,1.12,0,0,1,.42-.15,1.42,1.42,0,0,0-.76.18,12.1,12.1,0,0,1-1.9,1.28,3.88,3.88,0,0,1-.9.35,3.7,3.7,0,0,0,.76-.93c.15-.23.22-.56.17-.52a2.47,2.47,0,0,1-.69.4,6.23,6.23,0,0,1-1,.19,1,1,0,0,0-.38-.59,1.09,1.09,0,0,0-.48-.13v-.05a2.27,2.27,0,0,1,.08-.89c.14-.37.33-.59.26-.62s-.24.15-.46.36a16.58,16.58,0,0,1,.45-1.63,1.45,1.45,0,0,0-.09-.77,1,1,0,0,1,0,.44l0,.09a1.34,1.34,0,0,1-.06.12l0,.06a2.44,2.44,0,0,0-.39-1,14.27,14.27,0,0,0-1.73-2.12,3.52,3.52,0,0,0-.75-.45l-.64-.31-.22-.09-.62-.27-.26-.11,0,0h0a1.76,1.76,0,0,0,.39.38,3.07,3.07,0,0,1,.71,1.9,2.16,2.16,0,0,1-.79,1.24s1.09.8,1,1.77a3.06,3.06,0,0,1-.82,1.66s2,.55,2.5,1.77a1.52,1.52,0,0,1,.11.32l-.06.14a1.16,1.16,0,0,0-.09.54,1.12,1.12,0,0,1-.67.28s.88.93.64,1.71l.09-.11a1,1,0,0,1,1.28-.23,1.13,1.13,0,0,1,.22.14.82.82,0,0,1,1-1.11c1.32.09,2.51,1.75,2.51,1.75a3,3,0,0,1,1.29-1.34,2.28,2.28,0,0,1,2,.32,2.17,2.17,0,0,1,.9-1.17,3.05,3.05,0,0,1,2,0,2,2,0,0,0,.51.25Z" style="fill:#263238"></path><path d="M117.7,132.38a18.92,18.92,0,0,0-3.44.08l-.28.1-.36.15-.41.18-.21.1-.44.21a11,11,0,0,0-1.34.74,3,3,0,0,0-1,.94,2.47,2.47,0,0,0,0-.36c0-.16.24-.5.24-.5a1.71,1.71,0,0,0-.51.81,15.34,15.34,0,0,1-.54,2.78,4.79,4.79,0,0,1-.48,1.1,4.53,4.53,0,0,0-.15-1.48c-.07-.33-.3-.68-.31-.6a3.24,3.24,0,0,1-.25,1,7.35,7.35,0,0,1-.67,1,1.13,1.13,0,0,0-.84-.18,1.37,1.37,0,0,0-.53.29l0,0a2.79,2.79,0,0,1-.71-.84c-.21-.45-.24-.8-.32-.77a1.83,1.83,0,0,0-.09.72c-.59-.87-.83-1.49-1-1.82a1.77,1.77,0,0,0-.75-.6s.35.24.39.39a.56.56,0,0,0,0,.12l0,.16,0,.07a3,3,0,0,0-1.23-.56,18.15,18.15,0,0,0-3.37-.34,4.2,4.2,0,0,0-1.05.26c-.27.09-.56.19-.83.3l-.27.1-.78.31-.32.13h0a3.06,3.06,0,0,0,.67,0,3.72,3.72,0,0,1,2.29,1,2.65,2.65,0,0,1,.39,1.77,2.86,2.86,0,0,1,2.4.68,3.77,3.77,0,0,1,.74,2.18s2.2-1.24,3.73-.65a2.57,2.57,0,0,1,.37.18,1.34,1.34,0,0,1,.07.18,1.54,1.54,0,0,0,.4.55,1.39,1.39,0,0,1-.34.83s1.58,0,2,.94v-.18a1.28,1.28,0,0,1,.92-1.33,1.62,1.62,0,0,1,.3-.06,1,1,0,0,1-.12-1.81c1.23-1.08,3.72-.67,3.72-.67a3.74,3.74,0,0,1-.05-2.29c.38-1.15,2-1.47,2-1.47a2.71,2.71,0,0,1-.24-1.8,3.74,3.74,0,0,1,1.79-1.76,2.69,2.69,0,0,0,.66-.24Z" style="fill:#263238"></path><path d="M97,137.22a21.07,21.07,0,0,0-2.93,2.15c-.06.08-.12.16-.19.27l-.22.34-.24.41c0,.07-.09.14-.13.22l-.25.45a14.43,14.43,0,0,0-.71,1.45,3.22,3.22,0,0,0-.26,1.41s-.12-.18-.23-.31a1.27,1.27,0,0,1-.1-.57,1.78,1.78,0,0,0,.06,1A16.28,16.28,0,0,1,93,146.79a4.93,4.93,0,0,1,.25,1.24,4.7,4.7,0,0,0-1-1.19c-.27-.24-.69-.41-.64-.33a3.21,3.21,0,0,1,.36,1,8.41,8.41,0,0,1,0,1.27,1.18,1.18,0,0,0-.84.36,1.39,1.39,0,0,0-.28.57h-.07a3,3,0,0,1-1.12-.3c-.45-.26-.69-.55-.74-.48s.13.35.35.68a21.19,21.19,0,0,1-2-.94,1.81,1.81,0,0,0-1-.06,1.31,1.31,0,0,1,.58.1l.1.08.14.1.07.05a3.16,3.16,0,0,0-1.41.27A19.48,19.48,0,0,0,82.61,151a5,5,0,0,0-.75.87l-.53.76-.17.25c-.2.29-.37.55-.49.75l-.2.31,0,0h0a2.52,2.52,0,0,0,.58-.42A4.07,4.07,0,0,1,83.7,153a2.9,2.9,0,0,1,1.42,1.3s1.26-1.23,2.49-.87a4.05,4.05,0,0,1,2,1.43s1.15-2.41,2.83-2.83a2.65,2.65,0,0,1,.44-.07L93,152a1.73,1.73,0,0,0,.69.24,1.51,1.51,0,0,1,.21.92s1.39-.92,2.35-.44l-.12-.14a1.36,1.36,0,0,1,0-1.71,3,3,0,0,1,.23-.24,1.08,1.08,0,0,1-1.21-1.49c.41-1.69,2.82-2.85,2.82-2.85a4,4,0,0,1-1.45-2,3,3,0,0,1,.86-2.5,2.85,2.85,0,0,1-1.3-1.41,4,4,0,0,1,.47-2.62,2.66,2.66,0,0,0,.43-.61Z" style="fill:#263238"></path><path d="M413.15,203.93a19.8,19.8,0,0,0-3-2.1l-.3-.09a3.89,3.89,0,0,0-.4-.1l-.46-.11-.25-.05-.51-.1a13.36,13.36,0,0,0-1.6-.22,3.17,3.17,0,0,0-1.42.2,3.4,3.4,0,0,0,.22-.32c.09-.14.52-.27.52-.27a1.84,1.84,0,0,0-1,.37,16.23,16.23,0,0,1-2.21,2,4.79,4.79,0,0,1-1.1.63,4.6,4.6,0,0,0,.8-1.35c.15-.33.18-.77.12-.7a4.18,4.18,0,0,1-.82.65,7.63,7.63,0,0,1-1.19.42s-.2-.55-.61-.68a1.31,1.31,0,0,0-.64-.09l0-.06a2.92,2.92,0,0,1-.07-1.16c.11-.51.31-.83.22-.85s-.29.23-.54.54c0-1.1.24-1.78.27-2.2a1.79,1.79,0,0,0-.26-1,1.29,1.29,0,0,1,.09.57L399,198l0,.17,0,.08a3.11,3.11,0,0,0-.7-1.25,18.7,18.7,0,0,0-2.65-2.42,4.6,4.6,0,0,0-1.06-.44c-.28-.09-.59-.19-.89-.27l-.29-.08-.86-.23-.36-.09,0,0h0a2.89,2.89,0,0,0,.57.42,3.9,3.9,0,0,1,1.29,2.33,2.85,2.85,0,0,1-.78,1.75s1.56.82,1.61,2.1a4.06,4.06,0,0,1-.75,2.32s2.66.33,3.58,1.8a1.81,1.81,0,0,1,.2.39,1.33,1.33,0,0,1-.05.19,1.75,1.75,0,0,0,0,.72,1.45,1.45,0,0,1-.81.5s1.32,1,1.16,2.09l.1-.16a1.33,1.33,0,0,1,1.61-.55,1.71,1.71,0,0,1,.3.14,1.08,1.08,0,0,1,1-1.62c1.73-.14,3.59,1.78,3.59,1.78a4,4,0,0,1,1.4-2,3,3,0,0,1,2.65,0,2.82,2.82,0,0,1,.93-1.68,4,4,0,0,1,2.64-.37,2.93,2.93,0,0,0,.71.22Z" style="fill:#263238"></path><path d="M390.18,110.16a21.14,21.14,0,0,0-3-2.1l-.31-.09-.4-.1-.46-.1-.24-.06-.51-.1a13.35,13.35,0,0,0-1.6-.21,3.13,3.13,0,0,0-1.43.19s.14-.17.23-.31.51-.28.51-.28a1.75,1.75,0,0,0-.94.38,16.7,16.7,0,0,1-2.22,2,5.36,5.36,0,0,1-1.1.64,4.88,4.88,0,0,0,.81-1.35c.15-.34.17-.78.11-.71a3.13,3.13,0,0,1-.82.65,8.05,8.05,0,0,1-1.19.43s-.2-.56-.6-.69a1.49,1.49,0,0,0-.64-.09l0,0a2.88,2.88,0,0,1-.08-1.17c.11-.51.31-.83.22-.85s-.28.23-.53.55c.05-1.11.24-1.79.27-2.2a1.81,1.81,0,0,0-.27-1,1.34,1.34,0,0,1,.09.58l0,.12-.06.17,0,.07a3.11,3.11,0,0,0-.7-1.25,18.72,18.72,0,0,0-2.64-2.42,5.24,5.24,0,0,0-1.07-.44l-.88-.27-.3-.08-.86-.23-.36-.09,0,0h0a2.75,2.75,0,0,0,.58.41,4.07,4.07,0,0,1,1.29,2.33,2.85,2.85,0,0,1-.79,1.76s1.57.81,1.61,2.09a4,4,0,0,1-.74,2.32s2.65.33,3.58,1.8a2.42,2.42,0,0,1,.2.39,2,2,0,0,0-.06.92,1.5,1.5,0,0,1-.81.49s1.31,1,1.15,2.09l.1-.16a1.35,1.35,0,0,1,1.62-.55,2.33,2.33,0,0,1,.3.14,1.07,1.07,0,0,1,1-1.62c1.73-.14,3.59,1.78,3.59,1.78a4,4,0,0,1,1.41-2c1.05-.74,2.64,0,2.64,0a2.8,2.8,0,0,1,.94-1.68,3.89,3.89,0,0,1,2.63-.37,2.88,2.88,0,0,0,.71.21Z" style="fill:#263238"></path><path d="M252,244.13s-4.79-.24-5.9.13a4.44,4.44,0,0,0-.49.18l-.61.25c-.23.09-.46.2-.71.31l-.37.17-.75.36a20.42,20.42,0,0,0-2.3,1.27,5.14,5.14,0,0,0-1.67,1.62,4.47,4.47,0,0,0,0-.62c0-.28.4-.86.4-.86a3,3,0,0,0-.86,1.4,26.23,26.23,0,0,1-.94,4.77A8,8,0,0,1,237,255a7.65,7.65,0,0,0-.25-2.53c-.13-.58-.53-1.18-.54-1a5.77,5.77,0,0,1-.43,1.65,14.16,14.16,0,0,1-1.15,1.7,2,2,0,0,0-1.45-.31,2.31,2.31,0,0,0-.91.5l-.09-.05a4.76,4.76,0,0,1-1.22-1.45c-.35-.77-.39-1.37-.53-1.32a2.79,2.79,0,0,0-.17,1.23,35.17,35.17,0,0,1-1.77-3.12,3,3,0,0,0-1.3-1s.6.4.67.66l.06.21.1.27,0,.11a5.16,5.16,0,0,0-2.13-1,30.71,30.71,0,0,0-5.78-.59,8.25,8.25,0,0,0-1.81.45c-.46.16-.95.33-1.42.51l-.46.18-1.34.53-.55.23h0a4.49,4.49,0,0,0,1.16,0,6.47,6.47,0,0,1,3.93,1.79,4.64,4.64,0,0,1,.67,3.05s2.83-.46,4.13,1.17a6.56,6.56,0,0,1,1.27,3.73s3.78-2.13,6.4-1.11a4.26,4.26,0,0,1,.64.31q.06.17.12.3a2.64,2.64,0,0,0,.68,1,2.4,2.4,0,0,1-.57,1.43s2.7.06,3.52,1.6l0-.31a2.19,2.19,0,0,1,1.58-2.27,3.13,3.13,0,0,1,.52-.11,1.74,1.74,0,0,1-.21-3.11c2.11-1.86,6.4-1.15,6.4-1.15a6.54,6.54,0,0,1-.09-4c.66-2,3.47-2.51,3.47-2.51a4.64,4.64,0,0,1-.41-3.1,6.45,6.45,0,0,1,3.08-3,4.55,4.55,0,0,0,1.13-.4Z" style="fill:#263238"></path><path d="M70.76,84.69s-4.79-.23-5.9.13l-.49.18-.61.26c-.22.09-.46.19-.7.31l-.37.17c-.25.11-.51.23-.76.36a21.35,21.35,0,0,0-2.3,1.27A5,5,0,0,0,58,89s0-.35,0-.63.39-.85.39-.85a2.94,2.94,0,0,0-.86,1.4,26.23,26.23,0,0,1-.94,4.77,8.24,8.24,0,0,1-.82,1.89A7.48,7.48,0,0,0,55.48,93c-.13-.58-.52-1.17-.53-1a5.77,5.77,0,0,1-.44,1.64,12.9,12.9,0,0,1-1.14,1.71A2,2,0,0,0,51.92,95a2.17,2.17,0,0,0-.92.5l-.09-.05A4.78,4.78,0,0,1,49.7,94c-.35-.77-.4-1.38-.54-1.32S49,93.3,49,94c-1-1.49-1.42-2.56-1.77-3.13a3,3,0,0,0-1.29-1s.59.41.67.67a.66.66,0,0,0,.06.2l.09.27,0,.12a5.16,5.16,0,0,0-2.12-1,30.89,30.89,0,0,0-5.79-.59,8.39,8.39,0,0,0-1.81.45c-.46.16-.95.33-1.42.51l-.46.17-1.34.54-.55.22h.06a4.41,4.41,0,0,0,1.15,0,6.39,6.39,0,0,1,3.93,1.79,4.62,4.62,0,0,1,.67,3s2.83-.45,4.13,1.18a6.56,6.56,0,0,1,1.27,3.73S48.3,99,50.92,100a2.94,2.94,0,0,1,.64.31c0,.1.09.21.12.3a2.66,2.66,0,0,0,.69,1,2.44,2.44,0,0,1-.58,1.42s2.7.07,3.52,1.61l0-.31a2.16,2.16,0,0,1,1.57-2.27,3.12,3.12,0,0,1,.53-.11,1.75,1.75,0,0,1-.22-3.12c2.12-1.85,6.4-1.15,6.4-1.15a6.5,6.5,0,0,1-.09-3.94c.66-2,3.47-2.51,3.47-2.51a4.64,4.64,0,0,1-.41-3.1,6.45,6.45,0,0,1,3.08-3,4.83,4.83,0,0,0,1.13-.4Z" style="fill:#263238"></path><path d="M84.09,137.51a24.05,24.05,0,0,0-4.18,1.18l-.32.21-.39.3c-.14.11-.29.22-.44.35l-.24.19-.47.39a15.68,15.68,0,0,0-1.4,1.33,3.81,3.81,0,0,0-.89,1.46s-.06-.25-.12-.44a1.52,1.52,0,0,1,.12-.68,2.16,2.16,0,0,0-.35,1.15,20.41,20.41,0,0,1,.21,3.58,6.45,6.45,0,0,1-.24,1.49,5.77,5.77,0,0,0-.65-1.76c-.2-.39-.59-.74-.57-.64a4.25,4.25,0,0,1,0,1.25,9,9,0,0,1-.5,1.43,1.44,1.44,0,0,0-1.09,0,1.73,1.73,0,0,0-.56.52l-.07,0A3.47,3.47,0,0,1,70.8,148c-.39-.48-.54-.9-.63-.84a2.1,2.1,0,0,0,.11.91c-1-.88-1.48-1.56-1.84-1.9a2.23,2.23,0,0,0-1.11-.49s.5.18.6.35l.08.13.12.18.05.07a3.74,3.74,0,0,0-1.68-.28,22.41,22.41,0,0,0-4.23.64,5.42,5.42,0,0,0-1.21.66c-.3.19-.61.41-.92.62l-.29.21-.86.62-.35.27h0a3.5,3.5,0,0,0,.82-.22,4.74,4.74,0,0,1,3.13.55,3.42,3.42,0,0,1,1,2.05s1.93-.84,3.15.08a4.74,4.74,0,0,1,1.6,2.42s2.3-2.21,4.36-2a2.4,2.4,0,0,1,.51.11l.14.19a1.89,1.89,0,0,0,.66.55,1.8,1.8,0,0,1-.15,1.13s1.94-.45,2.81.49l-.08-.21a1.59,1.59,0,0,1,.71-1.91,2.72,2.72,0,0,1,.35-.18,1.29,1.29,0,0,1-.73-2.18c1.17-1.71,4.35-2,4.35-2a4.87,4.87,0,0,1-.79-2.8c.11-1.52,2-2.43,2-2.43a3.44,3.44,0,0,1-.86-2.13A4.72,4.72,0,0,1,83.35,138a3.64,3.64,0,0,0,.73-.5Z" style="fill:#263238"></path></g></svg>